<?xml version="1.0" standalone="no"?>
<!DOCTYPE svg PUBLIC "-//W3C//DTD SVG 20010904//EN"
 "http://www.w3.org/TR/2001/REC-SVG-20010904/DTD/svg10.dtd">
<svg version="1.0" xmlns="http://www.w3.org/2000/svg"
 width="259.000000pt" height="194.000000pt" viewBox="0 0 259.000000 194.000000"
 preserveAspectRatio="xMidYMid meet">
<metadata>
Created by potrace 1.16, written by Peter Selinger 2001-2019
</metadata>
<g transform="translate(0.000000,194.000000) scale(0.100000,-0.100000)"
fill="#000000" stroke="none">
<path d="M1197 1799 c-276 -32 -536 -215 -661 -465 -64 -128 -81 -209 -80
-374 1 -130 4 -154 28 -230 135 -416 545 -661 980 -585 86 15 260 78 273 98 4
7 0 8 -13 2 -108 -46 -276 -81 -315 -66 -23 9 -23 10 6 12 27 1 27 2 -10 10
-22 4 -65 8 -95 9 -59 1 -204 32 -195 42 3 3 -11 9 -32 14 -21 4 -40 8 -43 9
-3 0 -48 23 -100 50 -52 28 -98 50 -102 51 -5 1 -13 2 -19 3 -14 1 -109 98
-109 111 0 6 -4 10 -8 10 -4 0 -16 15 -27 33 -10 17 -24 36 -32 40 -17 11 -56
87 -44 87 5 0 18 -18 28 -40 10 -22 20 -40 23 -40 3 0 4 18 2 40 -2 22 -8 37
-13 35 -10 -7 -5 77 6 96 5 8 4 11 0 6 -9 -7 -35 44 -35 68 0 7 8 12 18 11 12
-1 18 7 20 27 2 15 0 27 -5 27 -4 0 -7 28 -6 62 1 35 -1 55 -3 46 -10 -35 -27
-19 -21 20 4 21 3 31 -2 22 -5 -8 -11 -71 -14 -138 -4 -94 -2 -132 9 -157 9
-22 10 -36 4 -40 -6 -3 -15 6 -20 22 -23 61 -22 59 -30 38 -7 -19 -7 -19 -17
0 -6 11 -16 44 -23 74 -12 51 -11 102 6 306 13 156 100 325 214 415 29 23 38
27 33 13 -9 -24 -34 -64 -56 -88 -22 -25 -4 -33 20 -9 10 10 16 18 15 18 -13
3 28 58 68 91 26 22 45 44 42 49 -3 5 0 6 6 2 7 -4 22 2 34 13 12 12 28 21 35
21 8 0 36 11 63 25 27 14 58 25 70 25 11 0 20 4 20 10 0 5 11 12 25 16 14 3
25 10 25 14 0 14 165 33 239 28 90 -7 94 7 4 15 -77 8 -92 7 -186 -4z"/>
<path d="M1051 1331 c-28 -28 -44 -96 -38 -167 6 -79 31 -124 69 -124 74 0
103 185 44 273 -27 39 -48 45 -75 18z"/>
<path d="M1524 1336 c-30 -22 -48 -94 -41 -172 6 -76 30 -117 71 -122 84 -10
89 289 5 306 -8 1 -23 -4 -35 -12z"/>
<path d="M750 904 c-39 -16 -69 -50 -70 -75 0 -24 28 -31 40 -11 9 15 13 13
37 -18 94 -122 251 -223 398 -255 115 -26 285 -17 384 20 82 30 156 72 216
122 39 33 107 111 125 142 7 14 10 14 27 -2 25 -22 43 -22 43 2 0 31 -65 81
-105 81 -39 0 -49 -24 -15 -33 11 -3 20 -11 20 -17 0 -27 -155 -166 -225 -202
-126 -64 -165 -73 -315 -72 -150 1 -195 12 -319 80 -60 34 -211 172 -211 194
0 5 10 10 23 12 14 2 22 10 22 23 0 26 -29 29 -75 9z"/>
</g>
</svg>
